<?xml version="1.0" standalone="no"?>
<!DOCTYPE svg PUBLIC "-//W3C//DTD SVG 20010904//EN"
 "http://www.w3.org/TR/2001/REC-SVG-20010904/DTD/svg10.dtd">
<svg version="1.0" xmlns="http://www.w3.org/2000/svg"
 width="512.000000pt" height="512.000000pt" viewBox="0 0 512.000000 512.000000"
 preserveAspectRatio="xMidYMid meet">
<metadata>
Created by potrace 1.16, written by Peter Selinger 2001-2019
</metadata>
<g transform="translate(0.000000,512.000000) scale(0.100000,-0.100000)"
fill="#000000" stroke="none">
<path d="M2275 4861 c-705 -129 -1236 -642 -1386 -1339 -27 -126 -37 -418 -19
-559 50 -401 351 -1085 725 -1643 227 -341 415 -570 710 -868 208 -210 210
-212 253 -212 39 0 49 6 145 94 465 425 898 1004 1182 1581 103 211 165 359
244 585 114 328 137 459 128 743 -8 273 -52 449 -171 692 -232 472 -659 803
-1181 916 -144 31 -486 36 -630 10z m425 -151 c266 -28 490 -108 710 -254 122
-82 157 -117 218 -218 98 -163 153 -300 198 -493 27 -113 28 -133 28 -345 0
-262 -10 -324 -95 -575 -264 -773 -675 -1442 -1244 -2024 l-160 -163 -58 63
c-416 456 -780 1008 -1018 1544 -83 189 -181 458 -213 586 -85 345 -40 716
124 1044 280 556 899 898 1510 835z"/>
<path d="M2090 4333 c-36 -45 -70 -146 -70 -212 0 -70 23 -147 74 -244 55
-105 58 -139 16 -192 -36 -46 -38 -84 -6 -121 18 -21 32 -28 61 -28 31 0 44 7
75 41 40 42 70 119 70 178 0 50 -29 134 -73 215 -38 68 -42 81 -42 147 0 60 4
76 25 105 53 71 21 148 -60 148 -32 0 -44 -6 -70 -37z"/>
<path d="M2584 4338 c-54 -64 -69 -114 -69 -223 l0 -101 55 -108 c66 -130 71
-173 28 -225 -35 -40 -36 -81 -4 -117 49 -58 134 -23 176 71 45 100 33 193
-45 340 -58 110 -61 163 -14 250 33 63 33 91 -1 125 -13 13 -34 20 -59 20 -32
0 -44 -6 -67 -32z"/>
<path d="M1673 3433 c-13 -2 -32 -16 -44 -31 -20 -26 -21 -35 -17 -222 4 -167
8 -205 27 -265 40 -121 98 -220 183 -310 l78 -82 -74 -5 c-90 -6 -140 -30
-180 -86 -70 -99 -32 -243 79 -293 37 -17 80 -19 665 -19 587 0 627 2 665 19
47 22 89 64 104 104 17 45 13 124 -9 166 -39 77 -104 111 -212 111 l-58 0 63
63 c59 59 123 145 148 200 11 24 16 25 103 29 106 4 161 25 225 89 55 55 83
118 89 199 9 132 -54 242 -175 302 l-68 33 -785 1 c-432 1 -795 0 -807 -3z
m1334 -290 c-6 -147 -25 -222 -84 -322 -205 -349 -681 -410 -966 -124 -120
120 -175 253 -184 448 l-6 125 623 0 623 0 -6 -127z m267 99 c44 -26 68 -78
63 -135 -3 -40 -11 -56 -40 -84 -29 -30 -44 -37 -88 -41 -51 -5 -52 -4 -46 19
4 13 7 80 7 148 l0 123 38 -7 c20 -3 50 -14 66 -23z m-279 -922 l0 -25 -605 0
c-584 0 -605 1 -608 19 -2 10 2 22 10 27 7 5 281 8 608 6 l595 -2 0 -25z"/>
</g>
</svg>
